<?xml version="1.0" encoding="utf-8"?>
<!-- Generator: Adobe Illustrator 27.1.1, SVG Export Plug-In . SVG Version: 6.00 Build 0)  -->
<svg version="1.1" id="Layer_1" xmlns="http://www.w3.org/2000/svg" xmlns:xlink="http://www.w3.org/1999/xlink" x="0px" y="0px"
	 viewBox="0 0 200 200" style="enable-background:new 0 0 200 200;" xml:space="preserve">
<style type="text/css">
	.st0{fill:#FFFFFF;}
</style>
<path class="st0" d="M107.8,174.6c-4.1,0.9-8.4,0.3-12-1.7c-3.7-2-6.5-5.3-8-9.2c-1.5-3.9-1.4-8.3,0.1-12.2c1.5-3.9,4.4-7.2,8.1-9.1
	c3.7-1.9,8-2.5,12.1-1.5c4.1,1,7.6,3.4,10.1,6.8c2.4,3.4,3.5,7.6,3,11.8c-0.4,4.2-2.4,8-5.5,10.9c5.1,5.1,12,7.9,19.2,7.9
	c6.4,0.3,12.6-1.8,17.5-5.9c4.9-4,8.2-9.8,9.1-16.1h-13.7c-1.1,0-2.2-0.5-3-1.3c-0.8-0.8-1.2-1.9-1.3-3.1l0.4-65.9
	c0-2.3,1.9-4.2,4.2-4.2h13.7c-0.2-11.1-3.4-21.9-9.3-31.4c-5.9-9.4-14.1-17.1-24-22.2c-9.8-5.1-20.9-7.5-32-6.8
	c-11.1,0.6-21.8,4.3-31,10.5l-3.3,2.7l0,0c-1.8,1.5-4.5,1.2-6-0.6c-1.5-1.8-1.2-4.5,0.6-6l3.6-2.8l0.3-0.2v0
	C71.3,17.9,83.6,13.7,96.3,13c12.7-0.7,25.4,2.1,36.7,8c11.3,6,20.7,14.9,27.3,25.8c6.6,10.9,10.1,23.4,10.1,36.2
	c7.9,2.1,14.9,6.9,19.9,13.4c5,6.6,7.6,14.6,7.5,22.8c0.1,8.3-2.6,16.3-7.6,22.9c-5,6.6-12.1,11.3-20.1,13.4
	c-0.8,8.8-4.9,16.9-11.5,22.7c-6.6,5.9-15.1,9-23.9,8.7C124.4,187,114.5,182.5,107.8,174.6L107.8,174.6z M95.4,157.8
	c0,2.3,0.9,4.5,2.5,6.1c1.6,1.6,3.8,2.5,6.1,2.5c2.3,0,4.5-0.9,6.1-2.5c1.6-1.6,2.5-3.8,2.5-6.1c0-2.3-0.9-4.5-2.5-6.1
	c-1.6-1.6-3.8-2.5-6.1-2.5c-2.3,0-4.5,0.9-6.1,2.5C96.4,153.3,95.5,155.5,95.4,157.8L95.4,157.8z M152.1,148h9.9v0
	c7.4-0.2,14.4-3.3,19.5-8.7c5.1-5.4,7.9-12.5,7.7-19.9c0.2-7.4-2.6-14.6-7.7-20c-5.1-5.4-12.1-8.5-19.5-8.7h-9.6L152.1,148z
	 M37.9,156.5c-9.7-0.2-18.9-4.2-25.6-11.2c-6.7-7-10.4-16.3-10.2-26c-0.1-8.3,2.6-16.4,7.6-23c5-6.6,12.1-11.3,20.1-13.4
	c0-12.6,3.5-25.1,9.9-35.9l1.9-3.8c0.5-1,1.4-1.8,2.5-2.1c1.1-0.3,2.3-0.3,3.3,0.3c1,0.5,1.8,1.4,2.1,2.5c0.3,1.1,0.3,2.3-0.3,3.3
	l-1.9,3.9c0,0.1-0.1,0.2-0.1,0.3c-5.6,9.3-8.6,19.9-8.8,30.7h13.5v-0.1c1.1,0,2.2,0.5,3,1.3s1.3,1.9,1.3,3l-0.4,66
	c0,2.4-1.9,4.3-4.3,4.3L37.9,156.5z M10.7,119.3c-0.2,7.4,2.6,14.6,7.7,20c5.1,5.4,12.1,8.5,19.5,8.7h9.6l0.3-57.3h-9.9l0,0
	c-7.4,0.2-14.4,3.3-19.5,8.7C13.3,104.7,10.5,111.9,10.7,119.3L10.7,119.3z"/>
</svg>
