<?xml version="1.0" encoding="utf-8"?>
<!-- Generator: Adobe Illustrator 27.1.1, SVG Export Plug-In . SVG Version: 6.00 Build 0)  -->
<svg version="1.1" id="Layer_1" xmlns="http://www.w3.org/2000/svg" xmlns:xlink="http://www.w3.org/1999/xlink" x="0px" y="0px"
	 viewBox="0 0 200 200" style="enable-background:new 0 0 200 200;" xml:space="preserve">
<style type="text/css">
	.st0{fill:#FFFFFF;}
</style>
<path class="st0" d="M165.5,84.5c10.9-9.1,13.8-25.2,5.9-37.5c-4.1-6.5-10.5-11-18-12.7c-6.3-1.4-12.7-0.7-18.4,2L116.8,7.7
	c-2.7-4.3-7.5-6.7-12.6-6.4c-5.1,0.3-9.5,3.2-11.7,7.9l-3.4,7.2L57,83.4l-31.7,20.1c-5.7,3.5-7.4,11-3.8,16.6l0.3,0.5l-2.1,1.3
	c-5.6,3.6-7.3,11.1-3.7,16.7l6.1,9.6c1.7,2.7,4.4,4.6,7.6,5.3c0.9,0.2,1.8,0.3,2.7,0.3c2.3,0,4.5-0.6,6.4-1.9l2.1-1.3l0.3,0.5
	c2.3,3.6,6.2,5.6,10.2,5.6c1.8,0,3.7-0.4,5.4-1.3l22.6,35.7c2.3,3.7,5.9,6.2,10.2,7.2c1.2,0.3,2.4,0.4,3.6,0.4
	c3.1,0,6.1-0.9,8.7-2.5c3.7-2.3,6.2-5.9,7.2-10.2c1-4.3,0.2-8.6-2.1-12.3l-22.6-35.6l5.2-3.3l74.3-0.4l7.9,0c5.1,0,9.7-2.7,12.2-7.2
	c2.4-4.5,2.3-9.8-0.5-14.1L165.5,84.5z M151.8,41.5c5.6,1.3,10.4,4.6,13.4,9.4c5.6,8.9,3.9,20.5-3.7,27.3l-9.1-14.4l-13.5-21.2
	C143,40.9,147.5,40.5,151.8,41.5L151.8,41.5z M37.1,144.6l-2.1,1.3c-1.1,0.7-2.4,0.9-3.6,0.6c-1.2-0.3-2.3-1-2.9-2.1l-6.1-9.6
	c-0.7-1.1-0.9-2.3-0.6-3.6c0.3-1.2,1-2.3,2.1-2.9l2.1-1.3l5.6,8.8L37.1,144.6z M50.5,149.5c-1.2-0.3-2.3-1-2.9-2.1l-19.8-31.2
	c-1.4-2.2-0.8-5.1,1.5-6.5L58.7,91l4,6.4l-8.3,5.3c-1.7,1.1-2.2,3.4-1.1,5.1c0.7,1.1,1.9,1.7,3.1,1.7c0.7,0,1.3-0.2,2-0.6l8.3-5.3
	l2.4,3.8l-8.3,5.3c-1.7,1.1-2.2,3.4-1.1,5.1c0.7,1.1,1.9,1.7,3.1,1.7c0.7,0,1.3-0.2,2-0.6l8.3-5.3l2.4,3.9l-8.3,5.3
	c-1.7,1.1-2.2,3.4-1.1,5.1c0.7,1.1,1.9,1.7,3.1,1.7c0.7,0,1.3-0.2,2-0.6l8.3-5.3l4,6.4l-27.4,17.3C56.2,147.6,51.8,149.7,50.5,149.5
	L50.5,149.5z M78.3,142.2l22.6,35.6c2.7,4.2,1.4,9.7-2.8,12.3c-4.2,2.7-9.7,1.4-12.3-2.8l-22.6-35.6l5.6-3.5L78.3,142.2z
	 M90.7,127.6l-26.6-42l28.8-60.2l64.6,101.8L90.7,127.6z M177.7,123.8c-1.2,2.1-3.3,3.4-5.7,3.4l-5.9,0L96.6,17.6l2.5-5.3
	c1.1-2.2,3.1-3.6,5.5-3.7c2.4-0.2,4.6,1,5.9,3l66.9,105.5C178.8,119.2,178.9,121.7,177.7,123.8L177.7,123.8z"/>
</svg>
