<?xml version="1.0" encoding="utf-8"?>
<!-- Generator: Adobe Illustrator 27.1.1, SVG Export Plug-In . SVG Version: 6.00 Build 0)  -->
<svg version="1.1" id="Layer_1" xmlns="http://www.w3.org/2000/svg" xmlns:xlink="http://www.w3.org/1999/xlink" x="0px" y="0px"
	 viewBox="0 0 200 200" style="enable-background:new 0 0 200 200;" xml:space="preserve">
<style type="text/css">
	.st0{fill:#FFFFFF;}
</style>
<g>
	<path class="st0" d="M2,8.1v113.7c0,0.1,0.1,0.2,0.2,0.2H22c0.1,0,0.2,0.1,0.2,0.2v26.8c0,6.2,7.7,9.1,11.8,4.4L61,122.2
		c0-0.1,0.1-0.1,0.2-0.1h12.8c0.1,0,0.2-0.1,0.2-0.2v-8.3c0-0.1-0.1-0.2-0.2-0.2H57.1c-0.1,0-0.1,0-0.2,0.1L31.5,143
		c-0.1,0.2-0.4,0.1-0.4-0.1v-29.3c0-0.1-0.1-0.2-0.2-0.2H11c-0.1,0-0.2-0.1-0.2-0.2V17c0-3.6,2.9-6.5,6.5-6.5h129.3
		c3.6,0,6.5,2.9,6.5,6.5v59.3c0,0.1,0.1,0.2,0.2,0.2h8.3c0.1,0,0.2-0.1,0.2-0.2l0-68.1c0-3.6-2.9-6.5-6.5-6.5L8.6,1.6
		C4.9,1.6,2,4.5,2,8.1L2,8.1z"/>
	<path class="st0" d="M83,85.2v87.3h71.6l20.8,24.2c2.9,3.3,8.4,1.3,8.4-3.1v-21.1H198l0-84.8c0-1.4-1.1-2.5-2.5-2.5L83,85.2z
		 M189.2,163.7h-14.2v19l-16.3-19H91.8V94h94.9c1.4,0,2.5,1.1,2.5,2.5L189.2,163.7z"/>
	<path class="st0" d="M28.1,38.6h109.7v8.8H28.1L28.1,38.6z"/>
	<path class="st0" d="M28.1,56.6h76.1v8.8H28.1L28.1,56.6z"/>
	<path class="st0" d="M121.6,128.7c0,4.1-3.4,7.5-7.5,7.5c-4.1,0-7.5-3.4-7.5-7.5c0-4.1,3.4-7.5,7.5-7.5
		C118.3,121.2,121.6,124.5,121.6,128.7"/>
	<path class="st0" d="M148.2,128.7c0,4.1-3.4,7.5-7.5,7.5c-4.1,0-7.5-3.4-7.5-7.5c0-4.1,3.4-7.5,7.5-7.5
		C144.9,121.2,148.2,124.5,148.2,128.7"/>
	<path class="st0" d="M174.8,128.7c0,4.1-3.4,7.5-7.5,7.5c-4.1,0-7.5-3.4-7.5-7.5c0-4.1,3.4-7.5,7.5-7.5
		C171.4,121.2,174.8,124.5,174.8,128.7"/>
</g>
</svg>
