<?xml version="1.0" encoding="utf-8"?>
<!-- Generator: Adobe Illustrator 27.1.1, SVG Export Plug-In . SVG Version: 6.00 Build 0)  -->
<svg version="1.1" id="Layer_1" xmlns="http://www.w3.org/2000/svg" xmlns:xlink="http://www.w3.org/1999/xlink" x="0px" y="0px"
	 viewBox="0 0 200 200" style="enable-background:new 0 0 200 200;" xml:space="preserve">
<style type="text/css">
	.st0{fill:#FFFFFF;}
</style>
<g>
	<path class="st0" d="M55.9,11.8c-9.7,0-17.6,7.9-17.6,17.6s7.9,17.6,17.6,17.6c2,0,3.9-0.4,5.6-1l16.7,29.1c-2.9,2.5-5.4,5.6-7.2,9
		L38.2,72.6c0-0.4,0.1-0.9,0.1-1.3c0-9.7-7.9-17.6-17.6-17.6C10.9,53.7,3,61.7,3,71.3S10.9,89,20.6,89c6.2,0,11.6-3.2,14.7-8.1
		l32.5,11.5c-0.6,2.4-1,5-1,7.6c0,7,2.1,13.5,5.9,18.8l-27.7,27.7c-2.6-1.5-5.5-2.4-8.7-2.4c-9.7,0-17.6,7.9-17.6,17.6
		s7.9,17.6,17.6,17.6S54,171.4,54,161.7c0-3.3-1-6.4-2.6-9.1l27.4-27.3c5.8,4.9,13.2,7.8,21.3,7.8c5.2,0,10-1.2,14.4-3.4l16.6,29.1
		c-2.8,3.1-4.5,7.2-4.5,11.7c0,9.7,7.9,17.6,17.6,17.6s17.6-7.9,17.6-17.6s-7.9-17.6-17.6-17.6c-2,0-3.9,0.4-5.6,1l-16.7-29.1
		c2.9-2.5,5.4-5.6,7.2-9l32.8,11.6c0,0.4-0.1,0.9-0.1,1.3c0,9.7,7.9,17.6,17.6,17.6c9.7,0,17.6-7.9,17.6-17.6s-7.9-17.6-17.6-17.6
		c-6.2,0-11.6,3.2-14.7,8.1l-32.5-11.5c0.6-2.4,1-5,1-7.6c0-7-2.1-13.5-5.9-18.8L145,63.4c1.3-1.3,1.7-3.2,1-4.9
		c-0.7-1.7-2.4-2.8-4.2-2.7c-1.2,0-2.2,0.5-3,1.4l-17.5,17.5c-5.8-4.9-13.2-7.8-21.3-7.8c-5.2,0-10,1.2-14.4,3.4L69,41.2
		c2.8-3.1,4.5-7.2,4.5-11.7C73.5,19.8,65.6,11.8,55.9,11.8L55.9,11.8z M55.9,20.6c4.9,0,8.8,3.9,8.8,8.8c0,4.9-3.9,8.8-8.8,8.8
		s-8.8-3.9-8.8-8.8C47.1,24.5,51,20.6,55.9,20.6L55.9,20.6z M163.7,20.6c-9.7,0-17.6,7.9-17.6,17.6s7.9,17.6,17.6,17.6
		s17.6-7.9,17.6-17.6S173.3,20.6,163.7,20.6L163.7,20.6z M163.7,29.5c4.9,0,8.8,3.9,8.8,8.8c0,4.9-3.9,8.8-8.8,8.8
		c-4.9,0-8.8-3.9-8.8-8.8C154.8,33.3,158.7,29.5,163.7,29.5L163.7,29.5z M20.6,62.5c4.9,0,8.8,3.9,8.8,8.8c0,4.9-3.9,8.8-8.8,8.8
		c-4.9,0-8.8-3.9-8.8-8.8C11.8,66.4,15.7,62.5,20.6,62.5z M100,75.7c13.4,0,24.3,10.8,24.3,24.3s-10.8,24.3-24.3,24.3
		S75.7,113.4,75.7,100S86.6,75.7,100,75.7L100,75.7z M179.4,119.8c4.9,0,8.8,3.9,8.8,8.8c0,4.9-3.9,8.8-8.8,8.8
		c-4.9,0-8.8-3.9-8.8-8.8C170.5,123.7,174.4,119.8,179.4,119.8z M36.3,152.9c4.9,0,8.8,3.9,8.8,8.8c0,4.9-3.9,8.8-8.8,8.8
		c-4.9,0-8.8-3.9-8.8-8.8C27.5,156.8,31.4,152.9,36.3,152.9z M144.1,161.7c4.9,0,8.8,3.9,8.8,8.8c0,4.9-3.9,8.8-8.8,8.8
		s-8.8-3.9-8.8-8.8C135.3,165.6,139.2,161.7,144.1,161.7z"/>
</g>
</svg>
