<?xml version="1.0" encoding="utf-8"?>
<!-- Generator: Adobe Illustrator 27.1.1, SVG Export Plug-In . SVG Version: 6.00 Build 0)  -->
<svg version="1.1" id="Layer_1" xmlns="http://www.w3.org/2000/svg" xmlns:xlink="http://www.w3.org/1999/xlink" x="0px" y="0px"
	 viewBox="0 0 200 200" style="enable-background:new 0 0 200 200;" xml:space="preserve">
<style type="text/css">
	.st0{fill:#FFFFFF;}
</style>
<path class="st0" d="M122.2,151.9v12h15.9c2.4,0,4.4,1.9,4.4,4.4v13.6c0,2.4-1.9,4.4-4.4,4.4H61.9c-2.4,0-4.4-1.9-4.4-4.4v-13.6
	c0-2.4,1.9-4.4,4.4-4.4h15.9v-12H16.4c-3.9,0-7.5-1.6-10.1-4.2l-0.3-0.3c-2.4-2.6-3.9-6-3.9-9.8V28c0-3.9,1.6-7.5,4.2-10.1
	c2.6-2.6,6.1-4.2,10.1-4.2h167.2c3.9,0,7.5,1.6,10.1,4.2c2.6,2.6,4.2,6.1,4.2,10.1v109.7c0,3.9-1.6,7.5-4.2,10.1
	c-2.6,2.6-6.1,4.2-10.1,4.2L122.2,151.9L122.2,151.9z M10.8,124.7h178.3V28c0-1.5-0.6-2.9-1.6-3.9c-1-1-2.4-1.6-3.9-1.6H16.4
	c-1.5,0-2.9,0.6-3.9,1.6c-1,1-1.6,2.4-1.6,3.9L10.8,124.7L10.8,124.7z M189.2,133.4H10.8v4.3c0,1.5,0.6,2.8,1.5,3.8l0.2,0.2
	c1,1,2.4,1.6,3.9,1.6h167.2c1.5,0,2.9-0.6,3.9-1.6c1-1,1.6-2.4,1.6-3.9L189.2,133.4L189.2,133.4z M113.5,163.9v-12h-27v12H113.5z
	 M133.7,172.6H66.3v4.9h67.4V172.6z"/>
</svg>
