<?xml version="1.0" encoding="utf-8"?>
<!-- Generator: Adobe Illustrator 27.1.1, SVG Export Plug-In . SVG Version: 6.00 Build 0)  -->
<svg version="1.1" id="Layer_1" xmlns="http://www.w3.org/2000/svg" xmlns:xlink="http://www.w3.org/1999/xlink" x="0px" y="0px"
	 viewBox="0 0 200 200" style="enable-background:new 0 0 200 200;" xml:space="preserve">
<style type="text/css">
	.st0{fill:#FFFFFF;}
	.st1{fill-rule:evenodd;clip-rule:evenodd;fill:#FFFFFF;}
</style>
<g>
	<path class="st0" d="M33,34h133.3c4.1,0,7.5,2.7,7.5,6v76.5c0,3.3-3.4,6-7.5,6H33c-4.1,0-7.5-2.7-7.5-6V40C25.5,36.7,28.9,34,33,34
		L33,34z M166.3,38.1H33c-1.3,0-2.4,0.9-2.4,1.9v76.5c0,1,1.1,1.9,2.4,1.9h133.3c1.3,0,2.4-0.9,2.4-1.9V40
		C168.7,39,167.6,38.1,166.3,38.1L166.3,38.1z"/>
	<path class="st0" d="M175.2,126.5l21.2,32.3c-1.2,3.4-2.6,6.3-6.4,7.2H9.8c-3.9-1.1-6.5-4-6.2-8.2l20.5-31.3L175.2,126.5
		L175.2,126.5z M172.5,131.7H26.9L8.7,159.3c0.5,0.6,1.1,1.1,1.7,1.6h178.9c0.6-0.4,0.9-0.9,1.3-1.4L172.5,131.7L172.5,131.7z"/>
	<path class="st1" d="M28.1,134.4h143.2l6.4,14.7H21.6L28.1,134.4z"/>
</g>
</svg>
