<?xml version="1.0" encoding="utf-8"?>
<!-- Generator: Adobe Illustrator 27.1.1, SVG Export Plug-In . SVG Version: 6.00 Build 0)  -->
<svg version="1.1" id="Layer_1" xmlns="http://www.w3.org/2000/svg" xmlns:xlink="http://www.w3.org/1999/xlink" x="0px" y="0px"
	 viewBox="0 0 200 200" style="enable-background:new 0 0 200 200;" xml:space="preserve">
<style type="text/css">
	.st0{fill:#FFFFFF;}
</style>
<g>
	<path class="st0" d="M144.3,120.6L144.3,120.6L144.3,120.6c1,0,1.9-0.3,2.6-0.9l26-20.9c1-0.8,1.6-1.9,1.6-3.1
		c0-1.2-0.6-2.4-1.6-3.1l0,0l0,0L147,71.7l-0.1-0.1l-0.1-0.1c-0.8-0.8-1.8-1.2-2.9-1.2c-0.1,0-0.1,0-0.2,0c-1.2,0.1-2.2,0.6-3,1.5
		c-0.7,0.9-1,2.1-0.9,3.2c0.2,1.1,0.8,2.2,1.8,2.8l0.1,0.1l0.1,0.1l20.3,16.4l1.5,1.2l-1.5,1.2l-20.5,16.4c-0.9,0.7-1.4,1.8-1.5,2.9
		c-0.1,1.1,0.3,2.3,1.1,3.1C142.1,120.1,143.2,120.6,144.3,120.6z"/>
	<path class="st0" d="M110,72.3L110,72.3c-0.7-0.9-1.7-1.4-2.8-1.5c-0.1,0-0.3,0-0.4,0c-0.9,0-1.8,0.3-2.6,0.9L78.4,92.5l0,0l0,0
		c-1,0.8-1.5,1.9-1.6,3.1c0,1.2,0.6,2.4,1.6,3.1l25.8,20.7c0.7,0.4,1.4,0.6,2.2,0.6c0.5,0,1.1-0.1,1.6-0.3c1.3-0.5,2.2-1.6,2.4-3
		c0.3-1.3-0.1-2.7-1.1-3.6L89,96.9l-1.5-1.2l1.5-1.2L109.4,78c0.8-0.7,1.4-1.7,1.5-2.7C111,74.2,110.7,73.2,110,72.3z"/>
	<path class="st0" d="M103.5,169c-0.7-1.3-2.1-2-3.5-2H62c-1.5,0-2.8,0.8-3.5,2c-0.7,1.3-0.7,2.8,0,4.1c0.7,1.3,2.1,2,3.5,2H100
		c1.5,0,2.8-0.8,3.5-2C104.2,171.8,104.2,170.2,103.5,169z"/>
	<path class="st0" d="M130.4,142.4c0-1.4-0.8-2.7-2-3.4c-0.6-0.4-1.3-0.5-2-0.5c-0.7,0-1.4,0.2-2,0.5c-1.3,0.7-2,2.1-2,3.5V173
		c0,4-1.6,8-4.4,10.8c-2.8,2.9-6.8,4.5-10.8,4.5H49.1c-4.1,0-7.9-1.6-10.8-4.5c-2.9-2.9-4.5-6.7-4.5-10.8v-146c0-4.1,1.6-8,4.5-10.9
		c2.9-2.9,6.8-4.5,10.9-4.5H52h1.6v1.6v1.5c0,4.1,1.6,8,4.5,10.9c2.9,2.9,6.8,4.5,10.9,4.6l24,0c4.1,0,8-1.6,11-4.5
		c2.9-2.9,4.5-6.8,4.5-11v-1.1v-2l1.9,0.5c3.4,0.8,6.4,2.7,8.5,5.4c2.1,2.7,3.3,6.1,3.3,9.5v21.1c0,1.5,0.8,2.8,2,3.5
		c0.6,0.4,1.3,0.5,2,0.5c0.7,0,1.4-0.2,2-0.5c1.3-0.7,2-2.1,2-3.5V27.1c0-6.3-2.4-12.2-6.9-16.7c-4.4-4.5-10.4-6.9-16.7-6.9H49.1
		c-6.3,0-12.2,2.5-16.7,6.9c-4.4,4.5-6.9,10.4-6.9,16.7V173c0,6.3,2.4,12.2,6.9,16.6c4.4,4.4,10.3,6.9,16.6,6.9h58
		c6.2,0,12.3-2.5,16.6-6.9c4.4-4.4,6.8-10.5,6.8-16.7L130.4,142.4z M63.2,11.7h35.5h1.6v1.6v1.5c0,1.9-0.8,3.8-2.1,5.2
		c-1.4,1.4-3.2,2.1-5.2,2.1H69h0h0c-2,0-3.8-0.8-5.2-2.2c-1.4-1.4-2.1-3.2-2.1-5.2l0-1.5l0-1.6H63.2z"/>
</g>
</svg>
