<?xml version="1.0" encoding="utf-8"?>
<!-- Generator: Adobe Illustrator 27.0.0, SVG Export Plug-In . SVG Version: 6.00 Build 0)  -->
<svg version="1.1" id="Layer_1" xmlns="http://www.w3.org/2000/svg" xmlns:xlink="http://www.w3.org/1999/xlink" x="0px" y="0px"
	 viewBox="0 0 200 200" style="enable-background:new 0 0 200 200;" xml:space="preserve">
<style type="text/css">
	.st0{fill:#96C43D;}
</style>
<g>
	<path class="st0" d="M61.1,139.7c-15.5,0-28.2-12.6-28.2-28.2s12.7-28.1,28.2-28.1s28.2,12.6,28.2,28.1
		C89.3,127.1,76.6,139.7,61.1,139.7z M61.1,89.9c-11.9,0-21.5,9.6-21.5,21.5S49.2,133,61.1,133s21.5-9.6,21.5-21.5
		S73,89.9,61.1,89.9z"/>
	<g>
		<path class="st0" d="M68.2,173.4H55c-1.6,0-2.9-1.3-3.3-2.9L50,158.8c-4.9-1.3-9.6-2.9-13.9-5.6l-9,7c-1.3,0.9-3.3,0.9-4.3-0.3
			l-9.2-9.2c-1.3-1.3-1.3-2.9-0.3-4.3l7.4-9.2c-2.7-4.3-4.7-9-5.6-13.9l-11.6-1.6c-1.6-0.3-2.9-1.6-2.9-3.3V105
			c0-1.6,1.3-2.9,2.9-3.3l11.6-1.6c1.3-4.9,2.9-9.6,5.6-13.9L13.4,77c-0.9-1.3-0.9-3.3,0.3-4.3l9.2-9.2c1.3-1.3,2.9-1.3,4.3-0.3
			l9.2,7.4c4.3-2.7,9-4.7,13.9-5.6l1.6-11.6c0.3-1.6,1.6-2.9,3.3-2.9h13.2c1.6,0,2.9,1.3,3.3,2.9l1.6,11.6c4.9,1.3,9.6,2.9,13.9,5.6
			l9.2-7.4c1.3-0.9,3.3-0.9,4.3,0.3l9.2,9.2c1.3,1.3,1.3,3.3,0.3,4.7l-7,9.2c2.7,4.3,4.7,9,5.6,13.9l11.6,1.6
			c1.6,0.3,2.9,1.6,2.9,3.3v13.2c0,1.6-1.3,2.9-2.9,3.3l-11.6,1.6c-1.3,4.9-2.9,9.6-5.6,13.9l7.4,9.2c0.9,1.3,0.9,3.3-0.3,4.3
			l-9.2,9.2c-0.7,0.7-1.6,0.9-2.7,0.9c-0.7,0-1.6-0.3-2.3-0.7l-9.2-7c-4.3,2.7-9,4.7-13.9,5.6l-1.6,11.2
			C71.3,172.2,70,173.4,68.2,173.4L68.2,173.4z M58,166.8h7.4l1.3-11.2c0.3-1.3,1.3-2.7,2.7-2.9c5.6-0.9,11-3.3,15.5-6.7
			c1.3-0.7,2.7-0.7,4,0l9,7l5.3-5.3l-7-9c-0.9-0.9-0.9-2.7,0-4c3.3-4.7,5.3-9.9,6.7-15.9c0.3-1.3,1.3-2.3,2.9-2.7l11.2-1.3v-7.4
			l-11.2-1.3c-1.3-0.3-2.7-1.3-2.9-2.7c-0.9-5.6-3.3-11-6.7-15.9c-0.7-1.3-0.7-2.7,0-4l7-9l-4.9-4.9l-9,7c-0.9,0.9-2.7,0.9-4,0
			c-4.7-3.3-9.9-5.3-15.5-6.7c-1.3-0.3-2.3-1.3-2.7-2.9l-1.3-11.2h-7.4l-2,11.6c-0.3,1.3-1.3,2.7-2.7,2.9c-5.6,0.9-11,3.3-15.5,6.3
			c-0.9,0.7-2.9,0.7-4.3,0l-8.6-6.7l-5.3,5.3l7,9c0.9,0.9,0.9,2.7,0,4c-3.3,4.7-5.3,9.9-6.7,15.9c-0.3,1.3-1.3,2.3-2.9,2.7L6.2,108
			v7.4l11.2,1.3c1.3,0.3,2.7,1.3,2.9,2.7c0.9,5.6,3.3,11,6.3,15.5c0.7,1.3,0.7,2.9,0,4.3l-6.7,9l5.3,5.3l9-7c0.9-0.9,2.7-0.9,4,0
			c4.7,3.3,9.9,5.3,15.5,6.7c1.3,0.3,2.3,1.3,2.7,2.9L58,166.8z"/>
		<path class="st0" d="M175.9,113.6l-9.4,3.7c-1.2,0.5-2.4-0.1-3.2-1.2l-4.5-7.6c-3.9,0.5-7.6,0.7-11.4,0l-4.3,7.5
			c-0.7,1.1-2,1.6-3.1,0.9l-9.2-3.9c-1.3-0.5-1.7-1.7-1.5-2.9l2.4-8.6c-3.1-2.3-5.9-4.9-7.9-8.2l-8.6,2.1c-1.2,0.3-2.5-0.3-3.1-1.5
			l-3.7-9.4c-0.5-1.2,0.1-2.4,1.2-3.2l7.6-4.3c-0.5-3.9-0.7-7.6,0-11.4l-7.8-4.4c-1.1-0.7-1.6-2-0.9-3.1l3.9-9.2
			c0.5-1.3,1.7-1.7,2.9-1.5l8.6,2.4c2.3-3.1,4.9-5.9,8.2-7.9l-2.1-8.6c-0.3-1.2,0.3-2.5,1.5-3.1l9.4-3.7c1.2-0.5,2.4,0.1,3.2,1.2
			l4.5,7.6c3.9-0.5,7.6-0.7,11.4,0l4.4-7.8c0.7-1.1,2-1.6,3.1-0.9l9.2,3.9c1.3,0.5,1.9,2,1.6,3.2l-2.3,8.6c3.1,2.3,5.9,4.9,7.9,8.2
			l8.6-2.1c1.2-0.3,2.5,0.3,3.1,1.5l3.7,9.4c0.5,1.2-0.1,2.4-1.2,3.2l-7.6,4.5c0.5,3.9,0.7,7.6,0,11.4l7.8,4.4
			c1.1,0.7,1.6,2,0.9,3.1l-3.9,9.2c-0.3,0.7-0.9,1.2-1.6,1.5c-0.4,0.1-1.2,0.3-1.9,0.1l-8.6-2.3c-2.3,3.1-4.9,5.9-8.2,7.9l2,8.4
			C177.6,111.9,177.1,113.2,175.9,113.6L175.9,113.6z M166.8,111.9l5.1-2.1l-2.3-8.3c-0.1-1.1,0.1-2.3,1.1-2.8
			c3.6-2.3,6.7-5.5,9.1-9.1c0.8-0.8,1.7-1.2,2.8-1.2l8.3,2.3l2.3-5.2l-7.6-4.1c-0.9-0.4-1.5-1.6-1.2-2.8c0.9-4.1,0.9-8.6,0.1-13.1
			c-0.1-1.1,0.3-2,1.3-2.7l7.5-4.1l-2.1-5.1l-8.3,2.3c-1.1,0.1-2.3-0.1-2.8-1.1c-2.3-3.6-5.5-6.7-9.2-9.2c-0.8-0.8-1.2-1.7-1.2-2.8
			l2.3-8.3l-4.9-2l-4.3,7.5c-0.4,0.9-1.6,1.5-2.8,1.2c-4.1-0.9-8.6-0.9-12.8-0.1c-1.1,0.1-2-0.3-2.7-1.3l-4.1-7.5l-5.1,2.1l1.9,8.7
			c0.1,1.1-0.1,2.3-1.1,2.8c-3.6,2.3-6.7,5.5-9.1,8.8c-0.5,0.8-1.9,1.3-3.1,1.2l-7.8-2.4l-2.3,5.2l7.5,4.3c0.9,0.4,1.5,1.6,1.2,2.8
			c-0.9,4.1-0.9,8.6-0.1,13.1c0.1,1.1-0.3,2-1.3,2.7l-7.5,4.1l2.1,5.1l8.3-2.3c1.1-0.1,2.3,0.1,2.8,1.1c2.3,3.6,5.5,6.7,8.8,9.1
			c0.8,0.8,1.3,1.9,1.2,3.1l-2.1,8.2l5.2,2.3l4.3-7.5c0.4-0.9,1.6-1.5,2.8-1.2c4.1,0.9,8.6,0.9,12.8,0.1c1.1-0.1,2,0.3,2.7,1.3
			L166.8,111.9z"/>
	</g>
	<path class="st0" d="M161,91.8c-11,4.4-23.4-0.8-27.8-11.8c-4.4-11,0.8-23.4,11.8-27.8S168.4,53,172.8,64S172,87.4,161,91.8z
		 M146.8,56.9c-8.4,3.5-12.4,13-9,21.3s13,12.4,21.3,9c8.4-3.5,12.4-13,9-21.3S155.1,53.4,146.8,56.9z"/>
</g>
</svg>
